<?xml version="1.0" encoding="utf-8"?>
<!-- Generator: Adobe Illustrator 17.0.0, SVG Export Plug-In . SVG Version: 6.00 Build 0)  -->
<!DOCTYPE svg PUBLIC "-//W3C//DTD SVG 1.1//EN" "http://www.w3.org/Graphics/SVG/1.1/DTD/svg11.dtd">
<svg version="1.1" id="Layer_1" xmlns="http://www.w3.org/2000/svg" xmlns:xlink="http://www.w3.org/1999/xlink" x="0px" y="0px"
	 width="244.425px" height="283.254px" viewBox="0 0 244.425 283.254" enable-background="new 0 0 244.425 283.254"
	 xml:space="preserve">
<path fill="#ECE5D9" d="M100.652,38.464c-0.133-0.586-0.265-1.171-0.398-1.757c0.19-0.045,0.38-0.09,0.57-0.135
	c0.146,0.582,0.292,1.164,0.438,1.745C101.059,38.367,100.856,38.415,100.652,38.464z"/>
<path fill="#ECE5D9" d="M204.829,114.893c-0.276-0.621-0.622-1.22-0.813-1.866c-0.481-1.624-0.892-3.268-1.332-4.905
	C203.942,110.207,204.471,112.523,204.829,114.893z"/>
<path fill="#415846" d="M126.41,250.388c-3.128,0.009-6.255,0.038-9.382,0.006c-0.509-0.005-1.016-0.281-1.523-0.432
	c-0.758-0.366-1.48-0.881-2.28-1.073c-3.731-0.892-7.752-0.485-11.114-3.023c-2.656-2.005-4.58-4.317-5.104-7.656
	c0.165,0.061,0.33,0.123,0.495,0.184c1.559,2.077,4.546,2.779,5.563,5.514c0.921,0.064,2.076-0.012,3.146,0.254
	c1.613,0.401,3.141,1.394,4.75,1.507c3.544,0.248,7.143,0.385,10.667,0.037c3.441-0.34,7.256,0.214,10.106-2.686
	c-0.3-0.35-0.532-0.622-1.072-1.254c1.202-0.091,2.044-0.093,2.861-0.238c0.559-0.099,1.083-0.399,1.622-0.609
	c0.332,0.007,0.665,0.015,0.997,0.022c0.971,0.191,1.942,0.382,2.912,0.573c1.447-0.725,2.895-1.45,3.997-2.002
	c0.736,0.229,1.245,0.388,1.755,0.546c1.494,1.511,1.115,3.158-0.919,4.789c-0.902,0.723-1.591,1.712-2.377,2.58
	c-1.641,0.464-3.282,0.928-4.924,1.392c-2.376,0.336-4.754,0.66-7.127,1.014C128.438,249.986,127.426,250.202,126.41,250.388z"/>
<path fill="#BDDEBA" d="M146.939,122.75c0.042,0.397,0.083,0.793,0.124,1.19c-0.201,0.241-0.401,0.482-0.689,0.828
	c0.421,0.021,0.735,0.036,1.049,0.051c0.022,0.143,0.044,0.285,0.065,0.428c-1.583,0.296-0.475,1.131-0.271,1.659
	c1.382,3.574,1.718,7.255,1.21,11.023c-0.217,1.609-0.585,3.197-0.824,4.803c-0.52,3.499-0.989,7.006-1.528,10.502
	c-0.035,0.224-0.493,0.383-0.755,0.573c-0.282-0.001-0.563-0.002-0.844-0.003c0.089-0.61,0.167-1.222,0.27-1.829
	c0.467-2.749,0.94-5.496,1.412-8.244c0.14-0.304,0.359-0.595,0.409-0.913c0.92-5.79,0.534-11.428-1.882-16.859
	c-0.384-0.863-0.548-1.87-0.6-2.823c-0.081-1.478-0.362-2.665-2.327-2.568c0.173-0.548,0.503-1.066,0.37-1.253
	c-1.12-1.568-2.326-3.075-3.506-4.6c-0.266-0.406-0.531-0.813-0.797-1.219c-0.278-0.726-0.556-1.452-0.833-2.178
	c-0.004-0.376-0.008-0.753-0.012-1.129c0.25-0.305,0.5-0.61,0.75-0.915c-0.02-0.283-0.04-0.565-0.059-0.848
	c0.02-0.546,0.038-1.092,0.057-1.637c-0.231-0.311-0.461-0.623-0.692-0.934c-0.011-0.797-0.022-1.595-0.033-2.392
	c1.145-0.887,1.203-1.758-0.036-2.612c-0.154-2.008-0.258-4.022-0.479-6.022c-0.18-1.63-0.5-3.244-0.758-4.864
	c-0.039-1.537-0.078-3.073-0.117-4.61c-0.105-0.429-0.21-0.857-0.315-1.286c-0.01-0.277-0.02-0.555-0.03-0.832
	c-0.008-1.115-0.016-2.23-0.024-3.344c-0.259-1.643-0.519-3.287-0.779-4.932c-0.007-1.116,0.049-2.235-0.032-3.344
	c-0.566-7.764-1.161-15.526-1.747-23.288c0.227-0.029,0.454-0.058,0.681-0.086c0.322,2.055,0.733,4.101,0.952,6.166
	c0.866,8.166,1.709,16.334,2.488,24.508c0.515,5.402,0.83,10.824,1.379,16.222c0.491,4.834,0.776,9.748,1.943,14.429
	c0.627,2.515,1.865,5.141,4.01,7.216c1.198,1.158,1.376,3.371,2.014,5.108C146.413,122.178,146.676,122.464,146.939,122.75z"/>
<path fill="#6ABC53" d="M115.899,31.63c0.597-0.011,1.194-0.022,1.79-0.033c2.23,0.009,4.465-0.046,6.691,0.067
	c0.682,0.035,1.34,0.535,2.008,0.822c-0.064,0.062-0.128,0.123-0.192,0.185c-1.705-0.095-3.411-0.19-5.116-0.284
	c-0.019,0.241-0.037,0.483-0.056,0.724c2.681,0.287,5.364,0.561,8.039,0.897c0.136,0.017,0.205,0.575,0.305,0.881
	c-0.287,0.158-0.573,0.315-0.86,0.473c-5.09-0.461-10.179-0.911-15.177,0.82c0.262,0.039,0.524,0.078,0.786,0.117
	c0.457,0.095,0.914,0.189,1.371,0.284c0.282,0.009,0.564,0.019,0.846,0.028c3.671-0.112,7.342-0.224,11.013-0.336
	c0.557-0.017,1.114-0.034,1.671-0.05c0.456,0.611,0.912,1.222,1.236,1.656c-1.319,0-2.37,0-3.421,0
	c-1.007-1.021-5.539-1.219-7.719-0.202c1.321,1.462,2.832,1.376,4.419,1.01c0.885-0.029,2.068,0.852,2.426-0.792
	c0.289-0.003,0.579-0.006,0.868-0.01c0.248,0.662,0.379,1.812,0.764,1.904c2.074,0.498,1.628,1.947,1.579,3.524
	c-0.908-0.04-1.728-0.076-2.814-0.124c0.517,0.425,0.793,0.652,1.069,0.879c-0.034,0.134-0.068,0.268-0.103,0.402
	c-0.442-0.07-0.885-0.139-1.327-0.209c-3.184-1.56-6.484-0.619-9.735-0.748c-0.011,0.182-0.023,0.364-0.034,0.546
	c2.149,0.104,4.298,0.209,6.446,0.313c-1.141,0.084-2.283,0.168-3.424,0.252c-0.834,0.136-1.668,0.272-2.502,0.409
	c-0.225,0.164-0.449,0.328-0.674,0.492c0.202,0.131,0.404,0.262,0.606,0.392c-0.015,0.801-0.03,1.603-0.044,2.404
	c-0.537,0.119-1.117,0.146-1.604,0.373c-1.285,0.599-2.63,2.209-3.549-0.431c-0.038-0.109-0.873,0.06-1.337,0.1
	c-0.071-0.432-0.143-0.865-0.214-1.297c0.013-0.386,0.025-0.773,0.038-1.159c-0.112-0.421-0.224-0.842-0.337-1.264
	c-0.178-0.451-0.357-0.902-0.535-1.352c1.489-0.169,2.915-0.184,3.324,1.065c0.316-1.24,0.938-2.76,0.968-4.292
	c0.011-0.554,0.753-2.511-1.313-2.246c-1.746-0.407-2.614-1.636-2.438-3.292c0.174-1.633,1.411-2.418,3.054-2.48
	c2.063,0.566,4.127,1.132,6.442,1.767c0.019-0.407,0.046-0.999,0.054-1.168C117.863,32.239,116.881,31.935,115.899,31.63z"/>
<path fill="#BDDEBA" d="M94.908,158.846c0.021-0.544,0.042-1.088,0.063-1.633c0.541,0.264,1.082,0.528,1.624,0.792
	c0.106,0.149,0.212,0.297,0.317,0.446c-0.107-0.148-0.213-0.296-0.32-0.444c-0.116-1.716-0.074-3.461-0.385-5.142
	c-0.429-2.323-1.195-4.582-1.657-6.9c-0.132-0.663,0.356-1.429,0.439-2.162c0.071-0.631,0.058-1.3-0.076-1.919
	c-0.211-0.972-0.782-1.911-0.797-2.871c-0.04-2.562,0.15-5.128,0.195-7.693c0.004-0.203-0.408-0.413-0.627-0.62
	c0.807-6.838,3.528-12.877,7.351-18.557c1.095-1.627,1.552-3.812,1.863-5.81c0.501-3.221,0.629-6.5,0.942-9.751
	c0.023-0.241,0.264-0.461,0.403-0.692c-0.101,3.065-0.293,6.132-0.266,9.196c0.015,1.681,0.399,3.359,0.616,5.039
	c-0.714,2.234-1.427,4.468-2.141,6.702c-0.561,1.258-1.122,2.517-1.684,3.775c-0.365,0.503-0.789,0.975-1.076,1.52
	c-0.196,0.372-0.139,0.871-0.303,1.269c-0.487,1.18-1.212,2.292-1.508,3.513c-0.582,2.404-0.894,4.872-1.399,7.296
	c-0.626,3.01-0.216,5.883,0.947,8.685c-0.139,0.807-0.461,1.632-0.388,2.419c0.358,3.823,0.822,7.635,1.248,11.452
	c0.029,0.548-0.018,1.113,0.105,1.639c0.17,0.725,0.469,1.42,0.712,2.127c-0.427,0.704-0.854,1.409-1.281,2.113
	c-0.444-0.985-0.887-1.969-1.342-2.979c-0.757,0.823-1.177,1.28-1.598,1.737c0,0,0-0.012,0-0.012
	c-0.012-0.304-0.023-0.607-0.035-0.911c0.016-0.261,0.032-0.523,0.048-0.784C94.902,159.408,94.905,159.127,94.908,158.846z"/>
<path fill="#D1E8CF" d="M94.887,161.396c0.42-0.457,0.841-0.914,1.598-1.737c0.455,1.01,0.899,1.994,1.342,2.979
	c-0.015,0.278-0.031,0.556-0.046,0.834c-0.396,0.558-0.791,1.116-1.187,1.673c-0.06-0.032-0.12-0.063-0.181-0.095
	c0.059,0.033,0.118,0.066,0.177,0.098c0.409,0.149,0.817,0.299,1.226,0.448c0,0.259,0.001,0.517,0.001,0.776
	c-0.359,0.212-1.009,0.399-1.03,0.641c-0.14,1.64-0.184,3.291-0.191,4.939c-0.019,4.05,0.132,8.106-0.035,12.15
	c-0.165,3.98,0.561,7.912,0.139,11.932c-0.298,2.84-1.044,5.858,0.374,8.756c0.334,0.682-0.203,1.757-0.184,2.648
	c0.006,0.27,0.532,0.53,0.916,0.883c-1.988,1.415-0.835,3.497-0.845,5.403c-0.262,0.031-0.523,0.061-0.785,0.092
	c-0.101-0.026-0.201-0.051-0.302-0.077c0.095,0.186,0.189,0.372,0.284,0.558c0.009,0.276,0.018,0.553,0.027,0.829
	c-0.083,1.059-0.531,2.263-0.179,3.149c1.05,2.643,0.781,5.073-0.365,7.566c-0.387,0.841-0.492,1.812-0.726,2.723
	c-0.116,0.593-0.148,1.219-0.363,1.773c-0.903,2.325-0.064,4.299,1.155,6.214c0.045,0.288,0.089,0.577,0.134,0.865
	c-0.032,0.135-0.001,0.254,0.093,0.357c-0.575,0.108-1.149,0.216-1.724,0.323c-0.226-0.1-0.649-0.194-0.651-0.299
	c-0.155-6.305-0.701-12.581,0.777-18.88c0.862-3.673,0.898-7.589,0.916-11.397c0.017-3.74-0.627-7.481-0.665-11.224
	c-0.029-2.915,0.498-5.831,0.636-8.753c0.059-1.244-0.231-2.507-0.388-3.758c-0.086-0.682-0.361-1.367-0.315-2.035
	c0.222-3.294,0.589-6.58,0.763-9.876c0.069-1.298-0.304-2.613-0.347-3.925C94.865,165.769,94.898,163.582,94.887,161.396z"/>
<path fill="#D1E8CF" d="M145.319,153.807c0.261-0.189,0.72-0.348,0.755-0.573c0.539-3.496,1.008-7.003,1.528-10.502
	c0.239-1.606,0.607-3.194,0.824-4.803c0.508-3.768,0.173-7.449-1.21-11.023c-0.204-0.528-1.311-1.362,0.271-1.659
	c1.875,2.745,1.66,5.972,1.963,9.041c0.546,5.538-0.681,10.945-1.438,16.394c-0.314,2.265,0.105,4.632,0.191,6.952
	c0.021,0.558,0.078,1.116,0.057,1.672c-0.142,3.721-0.387,7.441-0.424,11.164c-0.025,2.609,0.314,5.221,0.327,7.832
	c0.01,2.006-0.364,4.015-0.338,6.02c0.049,3.898,0.735,7.855,0.239,11.669c-0.343,2.639,0.143,5.189-0.197,7.758
	c-0.387,0.308-0.774,0.616-1.123,0.893c-0.171-0.582-0.334-1.137-0.497-1.693c-0.063-0.412-0.124-0.824-0.186-1.235
	c-0.098-0.572-0.196-1.143-0.293-1.715c0.103-0.833,0.207-1.665,0.31-2.498c0.102-2.233,0.386-4.477,0.266-6.698
	c-0.197-3.651-0.696-7.284-0.99-10.931c-0.226-2.807-0.333-5.624-0.493-8.436c-0.212-0.712-0.424-1.424-0.476-1.596
	c0.447-1.198,0.951-1.934,0.961-2.677c0.053-4.171-0.014-8.343-0.039-12.515C145.312,154.368,145.316,154.088,145.319,153.807z"/>
<path fill="#B8DCA9" d="M104.593,110.128c-0.217-1.68-0.601-3.358-0.616-5.039c-0.027-3.064,0.165-6.131,0.266-9.196
	c0.013-0.429,0.025-0.858,0.036-1.287c1.467-2.541,1.389-5.233,0.776-7.977c0.021-0.421,0.043-0.842,0.064-1.262
	c0.252-2.382,0.504-4.764,0.757-7.146c0.008-0.28,0.016-0.559,0.023-0.839c1.48-1.26,0.76-2.744,0.427-4.189
	c0.035-0.561,0.07-1.122,0.104-1.683c0.099-0.981,0.2-1.962,0.3-2.943c0.039-0.698,0.078-1.396,0.116-2.095
	c0.104-0.561,0.209-1.122,0.314-1.683c0.027-0.56,0.054-1.121,0.08-1.681c0.206-1.168,0.413-2.336,0.619-3.504
	c0.019-0.796,0.037-1.592,0.056-2.388c0.018-0.279,0.036-0.558,0.053-0.838c0.072-1.115,0.143-2.23,0.213-3.345
	c0.082-0.42,0.165-0.841,0.248-1.261c0.038-0.696,0.076-1.391,0.113-2.087c0.236-0.016,0.473-0.032,0.71-0.049
	c0.105,1.12,0.211,2.24,0.316,3.36c-0.261,2.385-0.522,4.771-0.784,7.156c0.108,0.945,0.215,1.889,0.323,2.834
	c-1.385,1.014-0.808,2.258-0.409,3.481c-0.122,1.532-0.245,3.064-0.367,4.596c-0.154,2.947-0.308,5.894-0.462,8.842
	c0.003,0.251,0.007,0.503,0.01,0.754c-1.333,0.674-0.865,1.641-0.423,2.604c0.001,1.092,0.001,2.183,0.002,3.275
	c-0.256,1.285-0.511,2.571-0.767,3.856c-0.008,0.978-0.016,1.956-0.024,2.934c-0.293,2.935-0.585,5.87-0.878,8.805
	c-1.515,1.417-0.794,3.038-0.421,4.627c0.014,0.704,0.027,1.407,0.041,2.111c-0.004,0.418-0.009,0.836-0.013,1.255
	C105.13,110.125,104.861,110.127,104.593,110.128z"/>
<path fill="#BDDEBA" d="M146.25,202.949c0.163,0.556,0.326,1.111,0.496,1.693c0.349-0.277,0.736-0.585,1.123-0.893
	c0.1,2.615,0.626,5.303,0.197,7.829c-0.598,3.523,0.415,6.725,0.918,10.058c0.244,1.616,0.184,3.278,0.263,4.919
	c-0.491,0.536-0.985,1.072-1.477,1.608c-0.475-0.452-1.05-0.837-1.407-1.369c-0.909-1.356-1.727-2.773-2.569-4.174
	c-0.378-0.63-0.725-1.279-1.104-1.952c3.303-1.18,4.37-9.11,2.638-13.103c-0.259-1.391-0.518-2.783-0.777-4.174
	c0.247-0.56,0.494-1.12,0.741-1.68c0,0,0.002-0.007,0.002-0.007C145.613,202.119,145.932,202.534,146.25,202.949z"/>
<path fill="#889E90" d="M94.211,238.099c0.575-0.108,1.149-0.216,1.723-0.323c0.219,0.013,0.438,0.026,0.656,0.039l-0.005-0.004
	c0.149,0.144,0.299,0.287,0.448,0.431c0,0-0.027-0.03-0.027-0.03c0.524,3.339,2.448,5.651,5.104,7.656
	c3.362,2.538,7.383,2.131,11.114,3.023c0.8,0.191,1.522,0.707,2.28,1.073c-4.06-0.523-8.121-1.047-12.181-1.57
	c-1.599-0.872-3.279-1.627-4.768-2.658c-0.981-0.678-1.687-1.753-2.516-2.651c-0.075-0.249-0.151-0.498-0.227-0.746
	c-0.528-1.375-1.055-2.75-1.583-4.125L94.211,238.099z"/>
<path fill="#889E90" d="M147.769,228.163c0.493-0.536,0.987-1.072,1.478-1.608c0.021,3.627,0.644,7.383-0.102,10.843
	c-0.753,3.494-1.546,7.496-5.432,9.385c-0.679,0.33-1.467,0.436-2.204,0.645c0.786-0.868,1.475-1.857,2.377-2.58
	c2.035-1.63,2.413-3.278,0.919-4.787c0.002-0.49,0.004-0.982,0.006-1.474c0.45-0.292,0.899-0.586,1.349-0.879
	c0.69,0.254,1.381,0.509,2.071,0.763c-0.105-0.544-0.531-0.831-0.487-0.968C148.747,234.387,148.555,231.278,147.769,228.163z"/>
<path fill="#D1E8CF" d="M96.594,158.006c-0.541-0.264-1.083-0.528-1.624-0.792c-0.647-5.631-1.491-11.25-1.864-16.899
	c-0.21-3.177,0.359-6.406,0.577-9.611c0.219,0.207,0.63,0.417,0.627,0.62c-0.045,2.565-0.235,5.131-0.195,7.693
	c0.015,0.959,0.587,1.899,0.797,2.871c0.134,0.618,0.147,1.288,0.076,1.919c-0.083,0.733-0.571,1.499-0.439,2.162
	c0.462,2.318,1.228,4.577,1.657,6.9c0.31,1.68,0.269,3.425,0.385,5.142L96.594,158.006z"/>
<path fill="#71C167" d="M129.368,34.888c-0.1-0.306-0.168-0.863-0.305-0.881c-2.675-0.337-5.358-0.611-8.039-0.897
	c0.019-0.241,0.037-0.483,0.056-0.724c1.705,0.095,3.411,0.19,5.116,0.284c0.064-0.062,0.128-0.123,0.192-0.185
	c-0.669-0.287-1.327-0.787-2.008-0.822c-2.226-0.114-4.46-0.058-6.691-0.067c3.444,0.097,6.887,0.195,10.329,0.292
	c0.707-0.07,1.414-0.14,2.121-0.21c0.315,0.096,0.629,0.193,0.942,0.288c0.712,1.129,1.425,2.259,2.138,3.389
	c-0.957-0.333-1.914-0.667-3.106-1.082C130.144,34.25,129.756,34.569,129.368,34.888z"/>
<path fill="#889E90" d="M133.221,35.357c-0.714-1.13-1.427-2.26-2.139-3.389c2.693,0.453,3.537,2.123,2.501,4.443
	c-0.376,0.841-0.433,2.113-0.068,2.937c0.842,1.899,2.232,3.624-0.015,5.493c-0.259,0.215-0.226,0.782-0.327,1.186
	c-0.265-0.088-0.532-0.175-0.799-0.262c-0.133-0.28-0.266-0.561-0.399-0.842c0.002-0.086-0.013-0.17-0.043-0.251
	c0.42-0.422,0.839-0.844,1.259-1.265c0.031-0.541,0.281-1.211,0.053-1.598c-0.788-1.336-1.744-2.574-2.706-3.951
	c0.77-0.242,1.307-0.411,2.226-0.699c-0.89-0.42-1.406-0.663-1.866-0.88C131.738,35.944,132.479,35.65,133.221,35.357z"/>
<path fill="#9DD08E" d="M112.689,32.049c-1.643,0.063-2.88,0.847-3.054,2.48c-0.176,1.656,0.691,2.885,2.438,3.293
	c-0.909,1.108-1.817,2.216-2.726,3.324c-0.245-0.249-0.49-0.499-0.735-0.748c0.401-1.649,0.828-3.184-0.471-4.802
	c-0.766-0.954,0.542-3.055,2.04-3.54c0.763-0.247,1.62-0.202,2.434-0.29C112.629,31.863,112.653,31.958,112.689,32.049z"/>
<path fill="#D1E8CF" d="M96.039,243.083c0.829,0.897,1.536,1.972,2.516,2.651c1.49,1.03,3.169,1.786,4.768,2.658
	C99.144,249.482,95.361,246.725,96.039,243.083z"/>
<path fill="#889E90" d="M108.613,40.397c0.245,0.249,0.49,0.499,0.733,0.749c-0.085,0.716-0.168,1.432-0.252,2.148
	c0.178,0.451,0.357,0.902,0.535,1.352c-0.164,0.356-0.328,0.713-0.493,1.069c-0.077-0.007-0.154-0.008-0.231-0.002
	c-0.103-0.396-0.074-0.975-0.33-1.159C106.576,43.119,107.321,41.769,108.613,40.397z"/>
<path fill="#BDDEBA" d="M105.055,86.628c0.612,2.744,0.691,5.436-0.776,7.977C104.538,91.946,104.797,89.287,105.055,86.628z"/>
<path fill="#71C167" d="M112.689,32.049c-0.036-0.092-0.06-0.186-0.073-0.284c1.095-0.045,2.189-0.09,3.283-0.135
	c0.982,0.304,1.964,0.608,3.286,1.017c-0.008,0.169-0.035,0.761-0.054,1.168C116.816,33.181,114.753,32.615,112.689,32.049z"/>
<path fill="#90CA75" d="M126.41,250.388c1.016-0.187,2.028-0.402,3.049-0.554c2.373-0.354,4.751-0.678,7.127-1.014
	c-2.085,0.505-4.152,1.11-6.261,1.477C129.053,250.519,127.717,250.37,126.41,250.388z"/>
<path fill="#BDDEBA" d="M105.875,78.219c-0.253,2.382-0.505,4.764-0.757,7.146C105.371,82.984,105.623,80.601,105.875,78.219z"/>
<path fill="#BDDEBA" d="M106.326,73.191c0.333,1.445,1.052,2.929-0.427,4.189C106.042,75.984,106.184,74.588,106.326,73.191z"/>
<path fill="#D1E8CF" d="M94.23,238.212c0.527,1.375,1.055,2.751,1.583,4.125C94.393,241.304,93.975,239.887,94.23,238.212z"/>
<path fill="#BDDEBA" d="M107.859,59.602c-0.207,1.168-0.414,2.336-0.619,3.504C107.446,61.938,107.652,60.77,107.859,59.602z"/>
<path fill="#71C167" d="M132.374,45.763c0.266,0.088,0.533,0.175,0.798,0.263c-0.022,0.49-0.042,0.981-0.061,1.471
	c-0.234,0.041-0.471,0.081-0.707,0.122C132.393,47,132.384,46.382,132.374,45.763z"/>
<path fill="#BDDEBA" d="M106.73,68.565c-0.1,0.981-0.201,1.962-0.3,2.943C106.531,70.527,106.63,69.546,106.73,68.565z"/>
<path fill="#B8DCA9" d="M108.905,45.714c0.077-0.006,0.154-0.006,0.231,0.004c0.276,0.066,0.553,0.129,0.829,0.193
	c-0.013,0.386-0.025,0.773-0.037,1.159c-0.212,0.318-0.425,0.635-0.637,0.953l-0.101-0.047c-0.156-0.005-0.312-0.01-0.468-0.015
	C108.783,47.211,108.844,46.463,108.905,45.714z"/>
<path fill="#BDDEBA" d="M107.159,64.788c-0.105,0.561-0.21,1.122-0.314,1.683C106.951,65.909,107.055,65.348,107.159,64.788z"/>
<path fill="#BDDEBA" d="M108.722,47.96c0.156,0.005,0.312,0.01,0.468,0.015c0.021,0.553,0.042,1.107,0.063,1.66
	c-0.237,0.016-0.475,0.032-0.71,0.049C108.603,49.11,108.662,48.535,108.722,47.96z"/>
<path fill="#889E90" d="M132.404,47.619c0.236-0.041,0.472-0.082,0.707-0.122c0.084,0.249,0.169,0.498,0.254,0.746
	c-0.228,0.028-0.455,0.056-0.681,0.086c-0.11,0.001-0.219,0.001-0.33,0.003C132.371,48.095,132.387,47.857,132.404,47.619z"/>
<path fill="#BDDEBA" d="M108.43,51.771c-0.083,0.42-0.167,0.841-0.248,1.261C108.265,52.612,108.347,52.191,108.43,51.771z"/>
<path fill="#889E90" d="M130.139,31.68c-0.707,0.07-1.414,0.14-2.121,0.21C128.726,31.82,129.432,31.75,130.139,31.68z"/>
<path fill="#D1E8CF" d="M146.939,122.75c-0.263-0.286-0.526-0.573-0.788-0.859C146.413,122.178,146.676,122.464,146.939,122.75z"/>
<path fill="#D1E8CF" d="M147.423,124.82c-0.314-0.015-0.628-0.031-1.049-0.051c0.288-0.346,0.488-0.587,0.689-0.828
	C147.184,124.233,147.303,124.527,147.423,124.82z"/>
<path fill="#D1E8CF" d="M94.908,158.846c-0.003,0.281-0.005,0.562-0.008,0.843C94.902,159.408,94.905,159.127,94.908,158.846z"/>
<path fill="#BDDEBA" d="M107.968,56.377c-0.018,0.279-0.036,0.558-0.053,0.838C107.933,56.935,107.95,56.656,107.968,56.377z"/>
<path fill="#D1E8CF" d="M94.852,160.473c0.012,0.304,0.024,0.607,0.035,0.911C94.875,161.081,94.864,160.777,94.852,160.473z"/>
<path fill="#3C9F49" d="M135.144,240.92c-0.54,0.21-1.063,0.51-1.622,0.609c-0.817,0.145-1.659,0.147-2.861,0.238
	c0.54,0.631,0.772,0.903,1.072,1.254c-2.85,2.899-6.665,2.346-10.106,2.686c-3.524,0.348-7.123,0.211-10.667-0.037
	c-1.608-0.112-3.137-1.106-4.75-1.507c-1.07-0.266-2.225-0.19-3.146-0.254c-1.017-2.736-4.004-3.438-5.563-5.515
	c0.954-1.276,1.782-2.729,3.713-2.619c0.143,0.804,0.286,1.608,0.429,2.413c0.296,1.637,1.557,2.176,2.936,2.58
	c1.496,1.261,2.857-0.162,4.276-0.274c0.885-0.07,1.7-0.817,2.597-0.985c2.796-0.525,5.907-0.144,7.822-2.972
	c1.532-0.129,3.063-0.258,4.595-0.387c-0.144,1.499,0.452,2.246,2.038,2.096c1.797-0.169,3.598-0.359,5.401-0.397
	C132.961,237.813,134.884,239.446,135.144,240.92z"/>
<path fill="#9ACE82" d="M101.214,235.776c-1.931-0.11-2.759,1.343-3.713,2.619c-0.165-0.061-0.33-0.122-0.494-0.184
	c0,0,0.027,0.03,0.027,0.03c-0.149-0.144-0.299-0.287-0.448-0.431c0,0,0.005,0.004,0.005,0.004c-0.25-0.132-0.499-0.264-0.749-0.396
	c-0.045-0.288-0.089-0.577-0.134-0.865c0.161-0.42,0.321-0.839,0.482-1.259c1.515-4.157,4.143-6.375,8.805-5.062
	c0.13,0.037,0.277,0.014,0.415,0.018c0.624,0.372,1.209,0.857,1.882,1.087c0.875,0.3,1.819,0.398,2.734,0.582
	c-1.509,0.283-3.01,0.627-4.53,0.832c-1.392,0.188-2.781,0.26-3.058,2.055C102.029,235.13,101.622,235.453,101.214,235.776z"/>
<path fill="#6ABC53" d="M144.811,238.587c-0.002,0.492-0.004,0.984-0.005,1.474c-0.509-0.16-1.018-0.319-1.755-0.548
	c-1.103,0.552-2.55,1.277-3.998,2.002c0.129-0.412,0.259-0.824,0.388-1.236c-0.235-1.242,2.698-0.393,1.485-2.164
	c-0.623-0.909-1.54-1.636-2.404-2.349c-0.346-0.286-0.924-0.273-1.367-0.464c-1.854-0.799-3.697-1.625-5.543-2.44
	c0.083-0.24,0.165-0.48,0.248-0.72c2.658,0.85,5.435,1.451,7.936,2.634C141.654,235.655,143.153,237.29,144.811,238.587z"/>
<path fill="#6ABC53" d="M135.144,240.92c-0.26-1.474-2.183-3.107-3.836-3.071c-1.802,0.038-3.603,0.228-5.401,0.397
	c-1.586,0.15-2.182-0.597-2.037-2.096c0.675,0.078,1.415,0.377,2.014,0.199c4.33-1.284,7.955,1.264,11.91,2.176
	c-0.453,0.077-0.906,0.153-1.395,0.236c0.777,0.412,1.484,0.788,2.192,1.164c-0.565,0.071-1.156,0.064-1.684,0.243
	c-0.307,0.104-0.514,0.506-0.766,0.775C135.809,240.935,135.477,240.928,135.144,240.92z"/>
<path fill="#3C9F49" d="M136.141,240.942c0.252-0.268,0.458-0.67,0.766-0.775c0.528-0.179,1.119-0.172,1.684-0.244
	c0.284,0.119,0.567,0.237,0.851,0.356c-0.13,0.412-0.259,0.824-0.389,1.236C138.083,241.324,137.112,241.133,136.141,240.942z"/>
<path fill="#B8DCA9" d="M97.781,163.472c0.016-0.278,0.031-0.556,0.046-0.834c0.427-0.704,0.854-1.409,1.281-2.113
	c0.624,1.799,1.248,3.598,1.894,5.462c1.292-1.046,2.396-1.946,3.507-2.837c1.908-1.529,0.66-3.228,0.201-4.826
	c-0.675-2.354-2.267-3.02-4.464-2.075c-0.611,0.263-1.301,0.344-1.955,0.508c-0.426-3.816-0.89-7.629-1.248-11.452
	c-0.074-0.787,0.248-1.612,0.388-2.419c0.415,0.034,0.872-0.032,1.239,0.119c2.713,1.12,3.609,0.555,3.828-2.304
	c0.082-1.066,0.389-2.134,0.732-3.155c0.524-1.559,1.232-3.056,1.743-4.618c0.53-1.62,0.873-3.301,1.388-4.927
	c0.271-0.856,0.935-1.618,1.074-2.478c0.312-1.926,1.062-3.296,3.233-3.33c-0.03-0.687-0.054-1.215-0.072-1.622
	c2.146-0.413,4.166-0.84,6.203-1.166c0.509-0.082,1.386-0.018,1.554,0.282c1.036,1.844,2.734,1.286,4.269,1.356
	c0.561,0.926,0.992,1.977,1.721,2.744c0.702,0.738,1.711,1.184,2.585,1.759c0.272-0.815,0.543-1.629,0.848-2.542
	c0.332-0.559,0.746-1.259,1.161-1.959c0.415,0.332,1.184,0.662,1.186,0.997c0.011,1.87,1.279,2.684,2.638,3.424
	c0.726,0.396,1.517,0.716,2.316,0.924c1.266,0.33,1.912,1.031,1.841,2.371c-0.111,2.105-0.222,4.212-0.27,6.319
	c-0.013,0.579,0.123,1.19,0.322,1.738c0.349,0.958,0.918,1.846,1.188,2.82c1.049,3.781,1.41,4.094,5.281,4.094
	c0.905,0,1.811-0.001,2.716-0.001c-0.471,2.748-0.945,5.495-1.412,8.244c-0.103,0.608-0.18,1.22-0.27,1.83
	c-0.15,0.013-0.299,0.025-0.448,0.037c-0.406-0.006-0.812-0.011-1.218-0.016c-1.515,0.747-3.008,1.542-4.551,2.228
	c-1.324,0.589-1.633,1.543-1.832,2.946c-0.499,3.525,0.889,7.365-1.621,10.561c-1.169,1.489-2.314,3.015-3.644,4.352
	c-0.823,0.827-2.284,1.111-2.917,2.018c-2.177,3.113-4.112,6.395-6.15,9.606c-0.218,0.344-0.447,0.732-0.773,0.947
	c-1.751,1.154-7.078,0.742-8.912-0.521c-0.552-0.38-1.562-0.715-2.018-0.459c-0.582,0.327-1.151,1.286-1.129,1.953
	c0.047,1.41,1.005,2.963,0.645,4.178c-0.734,2.479,0.894,3.872,1.787,5.648c0.211,0.42,0.248,0.924,0.444,1.354
	c0.475,1.04,0.936,2.096,1.52,3.075c0.421,0.707,1.188,1.231,1.523,1.963c0.803,1.754,2.008,2.005,3.766,1.587
	c2.224-0.529,4.512-0.788,7.284-1.249c-0.378,1.115-0.751,1.674-0.713,2.204c0.123,1.703-0.208,4.296,0.726,4.924
	c2.924,1.964,2.694,5.039,4.003,7.917c-2.576,0.367-4.884,0.88-7.211,0.987c-3.848,0.177-7.709,0.093-11.564,0.115
	c-1.259,0.007-2.518,0.034-3.775-0.007c-1.173-0.039-1.554-0.542-1.221-1.789c0.215-0.805-0.065-1.74-0.113-2.617
	c-0.036-0.646-0.131-1.301-0.068-1.939c0.196-1.986,0.849-4.021,0.579-5.932c-0.28-1.981-0.519-3.538,0.778-5.377
	c3.301-4.68,0.682-9.199-1.023-13.579c-1.102-2.83-2.75-5.446-4.118-8.177c-0.243-0.484-0.431-1.055-0.437-1.588
	c-0.027-2.276-1.494-2.902-3.388-3.095c-0.083-1.229-0.14-2.461-0.254-3.688c-0.186-2.002-0.408-4-0.615-5.999
	c0-0.259-0.001-0.517-0.001-0.776c0.386-0.37,0.866-0.684,1.123-1.128c0.163-0.281-0.006-0.754-0.027-1.141
	C98.536,163.376,98.158,163.424,97.781,163.472z M111.311,126.944c-0.004,2.232-0.007,4.464-0.011,6.697
	c0.825,1.351,1.668,1.262,2.525,0.031c0.277-0.007,0.555-0.015,0.832-0.022c1.026-0.111,2.633,0.479,2.726-1.075
	c0.161-2.708-0.114-5.442-0.207-8.166c-0.007-0.695-0.014-1.389-0.021-2.084c-0.622-1.406-1.55-0.985-2.503-0.421
	c-0.272,0.005-0.543,0.01-0.815,0.014c-1.91-0.215-2.66,0.711-2.549,2.543C111.338,125.286,111.306,126.116,111.311,126.944z
	 M108.639,154.026c1.409-0.297,3.098-0.752,4.817-0.991c2.736-0.379,5.49-0.642,8.241-0.896c1.373-0.127,2.113-0.31,1.335-2.038
	c-0.726-1.613-1.841-2.033-3.382-2.191c-2.105-0.215-4.202-0.53-6.291-0.874c-0.314-0.052-0.604-0.463-0.836-0.761
	c-1.268-1.633-4.557-2.158-6.108-0.864c-0.306,0.255-0.478,0.996-0.348,1.395C106.781,149.008,107.608,151.175,108.639,154.026z"/>
<path fill="#ABD69D" d="M122.622,121.043c-1.534-0.069-3.233,0.489-4.269-1.355c-0.168-0.3-1.045-0.363-1.554-0.282
	c-2.037,0.327-4.057,0.754-6.203,1.166c0.018,0.407,0.041,0.935,0.072,1.622c-2.171,0.034-2.921,1.404-3.233,3.33
	c-0.139,0.86-0.803,1.622-1.074,2.478c-0.516,1.626-0.858,3.307-1.388,4.927c-0.511,1.562-1.219,3.059-1.743,4.618
	c-0.343,1.021-0.65,2.09-0.732,3.155c-0.219,2.859-1.115,3.424-3.828,2.304c-0.367-0.151-0.824-0.085-1.239-0.119
	c-1.164-2.803-1.573-5.675-0.947-8.685c0.504-2.425,0.816-4.893,1.399-7.296c0.296-1.22,1.021-2.333,1.508-3.513
	c0.164-0.398,0.107-0.896,0.303-1.269c0.287-0.544,0.71-1.017,1.076-1.519c0.699,0.059,1.397,0.117,2.44,0.205
	c0.017,0.035,0.264,0.548,0.705,1.464c0.731-1.13,1.698-1.947,1.74-2.808c0.159-3.322,3.141-4.722,4.624-7.117
	c0.821-1.326,2.583-2.068,3.922-3.073c0.395,0.686,0.648,1.802,1.208,1.987c2.947,0.974,3.232,0.711,3.507-2.415
	c0.795,0.149,1.619,0.211,2.377,0.468c1.035,0.351,2.02,0.851,3.026,1.287c-0.053,1.072-0.107,2.143-0.16,3.215
	c1.013,0.028,2.026,0.057,3.038,0.085c2.319-0.144,4.637-0.288,6.956-0.431c-0.101,0.187-0.203,0.373-0.304,0.56
	c0.899,0.937,1.797,1.874,2.696,2.811c0.795,0.975,1.59,1.951,2.385,2.926c0.168-0.115,0.336-0.23,0.504-0.345
	c-0.561-1.136-1.122-2.273-1.683-3.409c0.291-0.433,0.581-0.867,0.872-1.3c1.18,1.525,2.385,3.033,3.505,4.601
	c0.134,0.187-0.197,0.705-0.37,1.253c1.965-0.097,2.246,1.09,2.327,2.568c0.052,0.952,0.217,1.96,0.6,2.823
	c2.416,5.431,2.802,11.069,1.882,16.859c-0.051,0.318-0.269,0.609-0.409,0.913c-0.905,0-1.811,0.001-2.716,0.001
	c-3.871,0-4.232-0.313-5.281-4.094c-0.27-0.974-0.839-1.862-1.188-2.82c-0.2-0.548-0.336-1.159-0.322-1.738
	c0.048-2.107,0.159-4.214,0.27-6.319c0.071-1.34-0.575-2.041-1.841-2.371c-0.8-0.208-1.59-0.529-2.316-0.924
	c-1.359-0.74-2.627-1.555-2.638-3.424c-0.002-0.334-0.771-0.665-1.186-0.997c-0.395-0.281-0.791-0.562-1.186-0.843
	c-0.014-0.457-0.027-0.915-0.041-1.372c-0.439-0.521-0.879-1.041-1.318-1.562c-0.132-0.143-0.265-0.286-0.397-0.43
	c-0.076-0.497-0.153-0.993-0.23-1.49c-0.21,0.056-0.42,0.112-0.63,0.167c0.143,0.444,0.285,0.887,0.428,1.331
	c-0.009,0.688-0.018,1.376-0.026,2.064c-0.254,0.17-0.507,0.339-0.761,0.509c-0.653-0.204-1.305-0.408-2.154-0.673
	C122.622,119.594,122.622,120.319,122.622,121.043z"/>
<path fill="#9DD08E" d="M136.543,116.843c-0.899-0.937-1.797-1.874-2.696-2.811c0.101-0.187,0.203-0.373,0.304-0.56
	c-2.319,0.144-4.637,0.288-6.955,0.431c0.002-0.553,0.003-1.106,0.004-1.659c0.634-1.662,0.634-1.662-1.664-1.674
	c-0.406,0.011-0.813,0.022-1.219,0.033c-1.006-0.436-1.991-0.936-3.026-1.287c-0.758-0.257-1.582-0.319-2.378-0.467
	c-0.03-0.689-0.059-1.379-0.089-2.068c-0.052-0.407-0.105-0.815-0.157-1.222c-0.908,0.415-1.816,0.831-2.724,1.246l0.001-0.002
	c-0.558,0.29-1.115,0.58-1.673,0.87c-0.025,0.534-0.049,1.069-0.074,1.603c-1.338,1.005-3.101,1.748-3.921,3.073
	c-1.483,2.395-4.465,3.795-4.624,7.117c-0.041,0.861-1.008,1.678-1.74,2.808c-0.441-0.916-0.688-1.428-0.705-1.464
	c-1.043-0.088-1.741-0.146-2.44-0.205c0.561-1.258,1.122-2.517,1.684-3.775c0.743-0.221,1.768-0.208,2.178-0.704
	c1.471-1.777,1.652-3.854,0.768-6.002c0.004-0.418,0.009-0.836,0.013-1.255c3.299,0.524,4.93-0.424,6.04-3.712
	c0.768-2.276,1.452-4.59,2.008-6.926c0.399-1.672,0.624-3.402,0.751-5.119c0.221-2.983,0.296-5.977,0.467-8.965
	c0.018-0.309,0.271-0.605,0.415-0.908c0.274-0.526,0.556-1.047,0.818-1.578c0.289-0.586,0.558-1.182,0.836-1.774
	c0.493-0.686,0.986-1.373,1.604-2.232c0.197,0.299,0.347,0.453,0.412,0.638c0.712,1.999-0.481,5.186,3.3,5.269
	c0.043,0.001,0.08,0.109,0.127,0.16c1.98,2.142,2.648,5.299,5.346,6.901c0.248,0.147,0.389,0.597,0.444,0.929
	c0.612,3.67,1.132,7.357,1.821,11.012c0.314,1.669,0.477,3.772,1.55,4.795c1.448,1.38,3.484,3.271,5.902,1.102
	c0.082-0.073,0.272-0.026,0.412-0.034c0.02,0.283,0.04,0.565,0.06,0.848c-0.25,0.305-0.5,0.61-0.75,0.915
	c0.004,0.376,0.008,0.753,0.012,1.129c0.278,0.726,0.556,1.452,0.834,2.177c0.265,0.406,0.531,0.813,0.797,1.219
	c-0.29,0.433-0.581,0.866-0.871,1.299c-0.488-0.844-0.977-1.688-1.465-2.531c-0.259,0.105-0.519,0.21-0.778,0.315
	C135.852,114.813,136.198,115.828,136.543,116.843z"/>
<path fill="#90CA75" d="M135.264,83.236c0.01,0.277,0.02,0.555,0.03,0.832c0.105,0.429,0.21,0.857,0.316,1.286
	c0.039,1.537,0.078,3.073,0.116,4.61c-2.555,0.078-0.451-2.565-2.057-3.283c-0.341,0.832-0.668,1.632-1.098,2.683
	c-0.714-1.628-1.074-3.125-1.927-4.249c-1.678-2.21-2.378-4.732-3.065-7.322c-0.398-1.499-0.668-3.383-1.701-4.286
	c-1.798-1.57-4.142-2.514-6.469-3.841c-0.273-1.291-0.611-2.887-0.95-4.482c0.006-0.694,0.012-1.387,0.018-2.081
	c0.266-0.616,0.743-1.226,0.761-1.848c0.076-2.757,0.02-5.518,0.011-8.277c0.012-2.093,0.023-4.186,0.035-6.279
	c1.535,0.004,3.071,0.009,4.606,0.013c0.285,0.004,0.57,0.008,0.856,0.012c0.829-0.005,1.657-0.01,2.486-0.016
	c2.496,1.747,3.095,4.213,3.001,7.125c-0.081,2.494,0.186,5.007,0.415,7.502c0.171,1.855,0.528,3.693,0.803,5.539
	c0.13,0.558,0.26,1.117,0.39,1.675c0.152,0.98,0.304,1.96,0.456,2.94c0.555,1.954,1.109,3.909,1.664,5.863
	c0.062,0.166,0.123,0.332,0.185,0.497c0.101-0.037,0.202-0.074,0.303-0.11c-0.163-0.404-0.326-0.808-0.488-1.212
	c-0.416-1.68-0.832-3.359-1.247-5.039c0.002-0.56,0.005-1.12,0.007-1.68c0.277,0.396,0.682,0.756,0.807,1.195
	c0.371,1.302,0.633,2.636,0.937,3.958c0.259,1.643,0.519,3.287,0.778,4.93C133.881,81.016,133.836,82.131,135.264,83.236z
	 M133.697,79.676c0.115-0.203,0.237-0.324,0.214-0.402c-0.027-0.089-0.182-0.14-0.281-0.207
	C133.649,79.237,133.668,79.407,133.697,79.676z"/>
<path fill="#9ACE82" d="M118.459,65.184c0.338,1.596,0.676,3.191,0.949,4.482c2.327,1.327,4.671,2.271,6.469,3.841
	c1.033,0.902,1.303,2.786,1.701,4.286c0.688,2.591,1.387,5.112,3.065,7.322c0.853,1.123,1.213,2.621,1.927,4.249
	c0.43-1.051,0.757-1.851,1.098-2.683c1.606,0.719-0.498,3.362,2.057,3.283c0.259,1.621,0.578,3.235,0.758,4.865
	c0.221,2.001,0.325,4.014,0.479,6.023c0.012,0.871,0.024,1.741,0.037,2.611c0.011,0.797,0.022,1.595,0.032,2.393
	c0.23,0.312,0.462,0.623,0.693,0.934c-0.019,0.546-0.037,1.092-0.057,1.637c-0.141,0.008-0.331-0.039-0.413,0.034
	c-2.418,2.169-4.454,0.278-5.902-1.102c-1.073-1.023-1.236-3.125-1.55-4.795c-0.688-3.655-1.208-7.342-1.821-11.012
	c-0.055-0.332-0.196-0.781-0.444-0.929c-2.697-1.602-3.366-4.759-5.346-6.901c-0.047-0.051-0.084-0.159-0.127-0.16
	c-3.782-0.083-2.588-3.27-3.3-5.269c-0.066-0.184-0.215-0.338-0.412-0.638c-0.617,0.859-1.111,1.545-1.604,2.232
	c0.147-2.906,0.177-5.825,0.483-8.714C117.445,69.156,118.036,67.179,118.459,65.184z"/>
<path fill="#71C167" d="M131.839,68.549c-0.13-0.558-0.26-1.117-0.39-1.675c0.245,0.158,0.49,0.316,1.318,0.85
	c-0.906-7.531-1.742-14.482-2.578-21.434l0.005-0.004c0.72,0.682,1.44,1.364,2.16,2.046c0.11-0.001,0.22-0.002,0.329-0.002
	c0.586,7.762,1.18,15.524,1.747,23.287c0.081,1.109,0.024,2.228,0.032,3.344c-0.304-1.32-0.565-2.654-0.937-3.956
	c-0.125-0.439-0.53-0.799-0.808-1.195C132.425,69.389,132.132,68.969,131.839,68.549z"/>
<path fill="#9ACE82" d="M135.264,83.236c-1.428-1.105-1.384-2.22-0.024-3.344C135.249,81.007,135.257,82.121,135.264,83.236z"/>
<path fill="#ABD69D" d="M137,103.463c-0.012-0.87-0.025-1.741-0.037-2.611C138.203,101.705,138.145,102.576,137,103.463z"/>
<path fill="#ABD69D" d="M137.824,113.496c-0.278-0.726-0.557-1.451-0.834-2.177C137.268,112.044,137.546,112.77,137.824,113.496z"/>
<path fill="#ABD69D" d="M144.027,153.842c0.149-0.012,0.299-0.025,0.448-0.038c0.281,0.001,0.562,0.002,0.844,0.003
	c-0.003,0.281-0.007,0.561-0.011,0.842C144.881,154.38,144.454,154.111,144.027,153.842z"/>
<path fill="#9ACE82" d="M135.61,85.354c-0.105-0.429-0.211-0.857-0.316-1.286C135.4,84.497,135.505,84.926,135.61,85.354z"/>
<path fill="#ABD69D" d="M137.725,106.789c-0.231-0.311-0.463-0.622-0.693-0.934C137.264,106.166,137.494,106.478,137.725,106.789z"
	/>
<path fill="#ABD69D" d="M136.978,110.189c0.25-0.305,0.5-0.61,0.75-0.915C137.478,109.579,137.228,109.884,136.978,110.189z"/>
<path fill="#90CA75" d="M109.253,49.635c-0.021-0.553-0.042-1.107-0.063-1.66c0,0,0.101,0.047,0.1,0.047
	c0.283,0.114,0.567,0.229,0.852,0.344c0.464-0.04,1.299-0.208,1.337-0.1c0.92,2.64,2.264,1.03,3.549,0.431
	c0.487-0.227,1.067-0.255,1.605-0.373c-0.258,7.846-0.516,15.692-0.775,23.538c-0.123,0.435-0.246,0.87-0.369,1.305
	c-0.137,2.381-0.275,4.762-0.412,7.144c-0.518-0.431-1.036-0.863-1.573-1.31c-0.583,1.725-1.528,3.57-1.807,5.511
	c-0.962,6.691-1.696,13.415-2.501,20.129c-0.093,0.779-0.084,1.569-0.145,2.835c-0.603-0.641-0.985-0.855-1.005-1.099
	c-0.234-2.805-0.362-5.62-0.626-8.422c-0.146-1.552-0.495-3.086-0.752-4.628c0.008-0.978,0.016-1.956,0.024-2.934
	c1.612-1.015,0.499-2.573,0.767-3.856c-0.001-1.092-0.001-2.183-0.001-3.275c0.141-0.868,0.282-1.736,0.423-2.604
	c-0.003-0.251-0.007-0.503-0.009-0.754c0.278-2.119,0.617-4.232,0.801-6.359c0.07-0.812-0.216-1.654-0.34-2.482
	c0.122-1.532,0.245-3.064,0.367-4.596c0.136-1.161,0.272-2.321,0.408-3.481c-0.108-0.945-0.215-1.889-0.323-2.834
	c0.396-0.203,1.139-0.413,1.134-0.606c-0.051-2.185-0.216-4.367-0.35-6.549C109.463,51.875,109.358,50.755,109.253,49.635z"/>
<path fill="#ABD69D" d="M115.078,80.311c0.137-2.381,0.275-4.762,0.412-7.144c0.123-0.435,0.246-0.87,0.369-1.305
	c0.259-7.846,0.517-15.692,0.775-23.538c0.014-0.802,0.029-1.603,0.044-2.405c0.023-0.295,0.045-0.589,0.067-0.884
	c0.834-0.136,1.668-0.272,2.502-0.409c0.13,0.29,0.26,0.58,0.39,0.869c-0.118,0.401-0.236,0.802-0.354,1.203
	c-0.012,2.093-0.023,4.186-0.035,6.28c-0.269,0.547-0.757,1.088-0.771,1.64c-0.068,2.827-0.013,5.656-0.001,8.484
	c-0.006,0.694-0.012,1.387-0.018,2.081c-0.422,1.995-1.014,3.972-1.227,5.989c-0.306,2.889-0.335,5.808-0.483,8.714
	c-0.278,0.592-0.548,1.188-0.836,1.774c-0.262,0.532-0.545,1.053-0.819,1.579C115.088,82.264,115.083,81.287,115.078,80.311z"/>
<path fill="#3C9F49" d="M119.637,45.496c-0.13-0.29-0.26-0.58-0.39-0.87c1.141-0.084,2.283-0.168,3.425-0.253
	c1.108-0.037,2.215-0.074,3.323-0.111c0.442,0.07,0.885,0.139,1.327,0.209c0.034-0.134,0.068-0.268,0.103-0.402
	c-0.276-0.227-0.552-0.454-1.069-0.879c1.087,0.048,1.906,0.084,2.814,0.124c0.048-1.577,0.494-3.026-1.579-3.524
	c-0.385-0.092-0.516-1.242-0.764-1.904c0,0,0.006-0.007,0.006-0.007c1.051,0,2.102,0,3.421,0c-0.324-0.434-0.78-1.045-1.236-1.656
	c-0.17-0.288-0.34-0.576-0.51-0.863c0.287-0.157,0.573-0.315,0.86-0.473c0.388-0.32,0.776-0.639,0.746-0.615
	c1.193,0.416,2.149,0.749,3.106,1.082c-0.741,0.294-1.482,0.587-2.324,0.921c0.46,0.217,0.976,0.46,1.866,0.88
	c-0.919,0.289-1.456,0.458-2.226,0.699c0.963,1.377,1.918,2.614,2.706,3.951c0.229,0.388-0.022,1.058-0.053,1.598
	c-1.092,0.15-2.184,0.301-3.275,0.451c0.026,0.2,0.051,0.401,0.077,0.601c0.647,0.071,1.293,0.142,1.94,0.213
	c0.031,0.081,0.045,0.165,0.044,0.252c-1.021,0.036-2.043,0.072-3.065,0.107C125.819,45.185,122.728,45.341,119.637,45.496z"/>
<path fill="#ABD69D" d="M128.508,35.362c0.17,0.288,0.34,0.575,0.51,0.863c-0.557,0.017-1.113,0.034-1.671,0.05
	c-1.61-0.018-3.221-0.093-4.827-0.038c-2.064,0.07-4.124,0.245-6.186,0.374c-0.282-0.009-0.564-0.019-0.846-0.028
	c-0.457-0.095-0.914-0.189-1.371-0.284c-0.262-0.039-0.524-0.078-0.786-0.117C118.328,34.451,123.418,34.901,128.508,35.362z"/>
<path fill="#3C9F49" d="M109.094,43.295c0.083-0.716,0.167-1.431,0.252-2.148c0.91-1.109,1.819-2.216,2.728-3.324
	c2.066-0.266,1.324,1.691,1.313,2.245c-0.03,1.532-0.653,3.052-0.968,4.292C112.009,43.11,110.582,43.126,109.094,43.295z"/>
<path fill="#71C167" d="M123.533,38.69c-1.588,0.366-3.099,0.452-4.419-1.01c2.18-1.017,6.712-0.819,7.719,0.202
	c0,0-0.006,0.007-0.006,0.007c-0.289,0.003-0.579,0.006-0.868,0.009C125.151,38.162,124.342,38.426,123.533,38.69z"/>
<path fill="#9DD08E" d="M125.995,44.264c-1.108,0.037-2.215,0.073-3.323,0.111c-2.149-0.103-4.298-0.208-6.446-0.312
	c0.011-0.182,0.023-0.364,0.034-0.546C119.511,43.644,122.811,42.703,125.995,44.264z"/>
<path fill="#9DD08E" d="M116.334,36.612c2.062-0.13,4.122-0.304,6.186-0.374c1.607-0.055,3.218,0.021,4.827,0.038
	C123.676,36.388,120.005,36.5,116.334,36.612z"/>
<path fill="#3C9F49" d="M123.533,38.69c0.809-0.264,1.618-0.528,2.427-0.792C125.601,39.542,124.418,38.661,123.533,38.69z"/>
<path fill="#9ACE82" d="M109.965,45.91c-0.276-0.064-0.552-0.127-0.829-0.193c0.164-0.359,0.328-0.715,0.492-1.071
	C109.741,45.068,109.853,45.489,109.965,45.91z"/>
<path fill="#9ACE82" d="M110.142,48.366c-0.284-0.115-0.568-0.23-0.852-0.344c0.214-0.317,0.426-0.634,0.638-0.952
	C109.999,47.502,110.07,47.934,110.142,48.366z"/>
<path fill="#90CA75" d="M116.745,45.036c-0.022,0.294-0.044,0.589-0.067,0.884c-0.203-0.13-0.405-0.261-0.606-0.392
	C116.296,45.363,116.521,45.2,116.745,45.036z"/>
<path fill="#9DD08E" d="M114.117,36.3c0.457,0.095,0.914,0.19,1.371,0.284C115.031,36.489,114.574,36.394,114.117,36.3z"/>
<path fill="#ABD69D" d="M98.292,156.758c0.654-0.164,1.344-0.245,1.955-0.508c2.197-0.946,3.79-0.279,4.464,2.075
	c0.458,1.598,1.707,3.297-0.201,4.826c-1.111,0.89-2.214,1.791-3.507,2.837c-0.647-1.865-1.27-3.664-1.894-5.462
	c-0.244-0.708-0.542-1.402-0.712-2.127C98.273,157.872,98.32,157.306,98.292,156.758z"/>
<path fill="#ABD69D" d="M105.398,110.124c0.884,2.148,0.703,4.225-0.768,6.002c-0.411,0.496-1.435,0.483-2.178,0.704
	c0.713-2.234,1.427-4.468,2.14-6.702C104.861,110.127,105.13,110.125,105.398,110.124z"/>
<path fill="#D1E8CF" d="M96.591,158.008c0.107,0.148,0.213,0.296,0.32,0.444c-0.106-0.149-0.212-0.297-0.317-0.446
	C96.594,158.006,96.591,158.008,96.591,158.008z"/>
<path fill="#BDDEBA" d="M97.818,166.373c0.207,2,0.429,3.998,0.615,5.999c0.114,1.227,0.171,2.458,0.254,3.688
	c-0.143,3.532-0.322,7.062-0.416,10.595c-0.066,2.483-0.015,4.97-0.017,7.455c-0.006,1.124-0.012,2.248-0.019,3.372
	c-0.131,0.725-0.388,1.452-0.371,2.174c0.098,4.037,0.262,8.072,0.403,12.108l0.005-0.002c-0.134,0.135-0.267,0.27-0.401,0.406
	c-0.145,0.565-0.291,1.131-0.436,1.696c0,0-0.007,0.007-0.007,0.007c-0.156-0.049-0.311-0.098-0.467-0.146
	c0.01-1.906-1.143-3.988,0.845-5.403c-0.385-0.353-0.911-0.613-0.916-0.883c-0.019-0.891,0.518-1.966,0.184-2.648
	c-1.418-2.898-0.673-5.916-0.374-8.756c0.422-4.021-0.304-7.953-0.139-11.932c0.168-4.043,0.017-8.099,0.035-12.15
	c0.008-1.648,0.051-3.299,0.191-4.939C96.808,166.772,97.459,166.585,97.818,166.373z"/>
<path fill="#B8DCA9" d="M96.962,213.725c0.156,0.049,0.311,0.098,0.467,0.146c0.061,0.031,0.121,0.063,0.182,0.094
	c-0.058-0.034-0.117-0.067-0.175-0.101c0.145-0.565,0.291-1.131,0.436-1.696c0.133-0.135,0.267-0.271,0.401-0.406
	c0,0-0.005,0.002-0.005,0.002c0.136,0.581,0.502,1.223,0.367,1.732c-0.481,1.812-0.011,3.173,1.007,4.781
	c0.804,1.27,2.423,2.851,0.778,4.879c-1.058,1.305-1.656,2.977-2.533,4.44c-0.307,0.513-0.841,0.887-1.257,1.338
	c-0.299,0.323-0.83,0.674-0.82,1c0.052,1.789,0.239,3.574,0.38,5.36c-0.16,0.42-0.321,0.84-0.482,1.259
	c-1.219-1.916-2.058-3.889-1.155-6.214c0.215-0.554,0.247-1.18,0.363-1.773c2.479-0.395,2.324-2.631,3.047-4.287
	c0.917-2.1-0.11-7.676-1.777-9.152c-0.009-0.276-0.018-0.553-0.027-0.829c0.006-0.161,0.012-0.321,0.018-0.481
	C96.439,213.786,96.701,213.755,96.962,213.725z"/>
<path fill="#BDDEBA" d="M96.187,215.127c1.667,1.475,2.694,7.052,1.777,9.152c-0.723,1.656-0.568,3.892-3.047,4.287
	c0.234-0.911,0.339-1.882,0.726-2.723c1.146-2.493,1.415-4.924,0.365-7.566C95.656,217.39,96.104,216.186,96.187,215.127z"/>
<path fill="#BDDEBA" d="M97.781,163.472c0.377-0.048,0.755-0.096,1.132-0.144c0.02,0.387,0.189,0.86,0.027,1.141
	c-0.257,0.444-0.737,0.758-1.123,1.128c-0.409-0.149-0.818-0.298-1.226-0.448c0,0,0.004-0.004,0.004-0.004
	C96.99,164.587,97.385,164.029,97.781,163.472z"/>
<path fill="#BDDEBA" d="M96.177,213.817c-0.006,0.16-0.012,0.321-0.018,0.481c-0.095-0.186-0.189-0.372-0.284-0.558
	C95.976,213.765,96.077,213.791,96.177,213.817z"/>
<path fill="#415846" d="M95.842,237.418c0.25,0.132,0.499,0.264,0.749,0.396c-0.219-0.013-0.438-0.026-0.656-0.039
	C95.841,237.673,95.81,237.554,95.842,237.418z"/>
<path fill="#BDDEBA" d="M96.59,165.149c-0.059-0.033-0.118-0.066-0.177-0.098c0.06,0.032,0.12,0.063,0.181,0.095
	C96.594,165.145,96.59,165.149,96.59,165.149z"/>
<path fill="#ABD69D" d="M96.19,235.294c-0.141-1.786-0.328-3.571-0.38-5.36c-0.01-0.326,0.521-0.677,0.82-1
	c0.417-0.45,0.95-0.825,1.257-1.338c0.877-1.463,1.475-3.135,2.533-4.44c1.645-2.028,0.026-3.61-0.778-4.879
	c-1.019-1.608-1.489-2.969-1.007-4.781c0.135-0.509-0.231-1.151-0.367-1.732c-0.142-4.036-0.306-8.071-0.403-12.108
	c-0.017-0.721,0.24-1.449,0.371-2.173c0.405-0.136,0.809-0.272,1.33-0.447c-0.075,1.02-0.138,1.885-0.202,2.75
	c0.176,0.001,0.353,0.002,0.529,0.003c0-1.96,0-3.92,0-5.982c-0.698,0.129-1.168,0.216-1.639,0.304
	c0.001-2.485-0.049-4.972,0.017-7.455c0.094-3.533,0.273-7.063,0.416-10.595c1.893,0.193,3.36,0.819,3.388,3.095
	c0.006,0.533,0.194,1.104,0.437,1.588c1.368,2.73,3.016,5.346,4.118,8.177c1.705,4.379,4.324,8.899,1.023,13.579
	c-1.297,1.839-1.058,3.396-0.778,5.377c0.27,1.911-0.383,3.946-0.579,5.932c-0.063,0.638,0.033,1.293,0.068,1.939
	c0.048,0.877,0.328,1.813,0.113,2.617c-0.333,1.246,0.049,1.75,1.221,1.789c1.257,0.041,2.517,0.015,3.775,0.007
	c3.855-0.022,7.716,0.061,11.564-0.115c2.327-0.107,4.635-0.62,7.211-0.987c-1.309-2.877-1.079-5.952-4.003-7.917
	c-0.934-0.627-0.603-3.221-0.726-4.924c-0.038-0.53,0.335-1.09,0.713-2.204c-2.772,0.461-5.061,0.72-7.284,1.249
	c-1.758,0.418-2.963,0.167-3.766-1.587c-0.335-0.732-1.102-1.256-1.523-1.963c-0.583-0.98-1.045-2.035-1.52-3.075
	c-0.196-0.43-0.233-0.934-0.444-1.354c-0.893-1.775-2.521-3.169-1.787-5.648c0.36-1.215-0.599-2.768-0.645-4.178
	c-0.022-0.667,0.547-1.626,1.129-1.953c0.456-0.256,1.466,0.079,2.018,0.459c1.834,1.263,7.161,1.674,8.912,0.521
	c0.325-0.214,0.555-0.603,0.773-0.947c2.038-3.211,3.973-6.493,6.15-9.606c0.634-0.906,2.095-1.19,2.917-2.018
	c1.33-1.337,2.475-2.864,3.644-4.352c2.51-3.195,1.123-7.036,1.621-10.561c0.198-1.403,0.507-2.357,1.832-2.946
	c1.542-0.686,3.036-1.481,4.55-2.228c-0.037,0.275,0.031,0.689-0.125,0.805c-2.701,2.022-1.844,4.961-1.308,7.305
	c0.82,3.583,0.536,6.858-0.802,10.132c-0.484,1.184-0.018,1.707,0.952,2.084c1.277,0.497,1.455-0.281,1.751-1.302
	c0.167-0.575,1.033-0.948,1.584-1.412c0.16,2.812,0.267,5.629,0.493,8.436c0.294,3.647,0.793,7.28,0.99,10.931
	c0.12,2.222-0.163,4.465-0.265,6.698c-0.403-1.551-0.806-3.102-1.209-4.653c0.008-0.636,0.024-1.272,0.022-1.908
	c-0.006-2.106,0.089-4.221-0.083-6.314c-0.064-0.776-0.76-1.5-1.167-2.248c-2.455,0.39-7.181,4.983-7.538,7.328
	c-0.021,0.137-0.024,0.278-0.024,0.417c-0.004,1.777-0.022,3.553-0.002,5.33c0.007,0.62,0.01,1.268,0.185,1.853
	c0.926,3.083,2.048,6.141,1.474,9.44c-0.44,2.528,0.82,4.436,2.295,6.155c0.94,1.096,2.59,2.208,3.812,1.064
	c0.917-0.858,0.98-2.685,1.281-4.111c0.081-0.386-0.5-0.881-0.503-1.328c-0.002-0.319,0.454-0.641,0.706-0.962
	c1.732,3.993,0.665,11.923-2.638,13.103c0.379,0.673,0.726,1.322,1.104,1.952c0.841,1.401,1.66,2.818,2.569,4.174
	c0.356,0.532,0.932,0.917,1.407,1.369c0.785,3.116,0.977,6.225-0.026,9.342c-0.044,0.137,0.382,0.424,0.487,0.968
	c-0.69-0.254-1.381-0.509-2.071-0.762c-0.112-0.235-0.223-0.472-0.335-0.709c0.255-0.849,0.51-1.698,0.765-2.547
	c0.708-0.725,0.732-3.947,0.035-4.754c-0.92-1.066-2.846-1.021-4.253,0.1c-1.256,0.002-2.511,0.003-3.767,0.005
	c0.261-0.389,0.622-1.149,0.769-1.109c1.895,0.509,2.899-0.749,3.742-1.982c0.446-0.653,0.373-1.66,0.535-2.508
	c-0.935-0.071-1.978-0.443-2.784-0.154c-2.204,0.791-4.242,2.082-6.472,2.755c-2.086,0.63-4.334,0.727-6.513,1.044
	c-0.464,0.068-0.946,0.029-1.405,0.117c-0.537,0.103-1.057,0.291-1.584,0.442c0.5,0.333,0.959,0.789,1.509,0.973
	c1.115,0.373,2.616,0.003,2.955,1.707c-1.823,0.005-3.646,0.01-5.47,0.015c0.002-0.286,0.003-0.571,0.005-0.857
	c-0.441-0.587-0.766-1.463-1.349-1.697c-1.062-0.426-2.274-0.483-3.428-0.672c-2.082-0.34-4.162-0.873-6.253-0.925
	c-1.521-0.038-3.103,1.287-4.511-0.393c-0.087-0.104-0.541,0.011-0.769,0.13c-1.099,0.577-2.178,1.19-3.091,1.695
	c0.261,0.529,0.59,1.196,0.919,1.863c-0.139-0.005-0.286,0.018-0.415-0.018C100.333,228.919,97.705,231.137,96.19,235.294z"/>
<path fill="#9ACE82" d="M144.871,192.848c0.403,1.551,0.807,3.102,1.21,4.653c-0.104,0.833-0.207,1.665-0.311,2.498
	c-0.159,0.571-0.318,1.141-0.477,1.712c-0.247,0.56-0.494,1.12-0.742,1.68c-2.739-0.159,0.17,2.807-2.121,3.058
	c-0.194-1.433-0.387-2.984-0.623-4.529c-0.067-0.438-0.182-1.181-0.407-1.235c-2.97-0.713-2.322-3.405-2.733-5.295
	c-0.832-3.827,1.012-6.608,4.261-8.551c0.238,0.754,0.474,1.509,0.711,2.264c0.13,0.412,0.26,0.824,0.39,1.237
	c0.014,0.134,0.024,0.268,0.03,0.402C144.33,191.444,144.6,192.146,144.871,192.848z"/>
<path fill="#9DD08E" d="M144.862,171.436c-0.551,0.464-1.418,0.837-1.584,1.412c-0.296,1.021-0.473,1.799-1.751,1.302
	c-0.97-0.377-1.436-0.9-0.952-2.084c1.338-3.273,1.622-6.548,0.802-10.132c-0.536-2.344-1.393-5.283,1.308-7.305
	c0.155-0.116,0.088-0.53,0.125-0.805c0.406,0.005,0.812,0.011,1.218,0.016c0.427,0.269,0.854,0.538,1.281,0.807
	c0.026,4.172,0.092,8.344,0.039,12.515c-0.009,0.743-0.514,1.479-0.961,2.677C144.438,170.013,144.65,170.725,144.862,171.436z"/>
<path fill="#ABD69D" d="M145.292,201.711c0.159-0.571,0.318-1.141,0.477-1.712c0.098,0.572,0.196,1.143,0.294,1.714
	c-0.256-0.003-0.513-0.007-0.769-0.01L145.292,201.711z"/>
<path fill="#9DD08E" d="M145.295,201.704c0.257,0.003,0.513,0.007,0.769,0.01c0.061,0.412,0.123,0.824,0.185,1.236
	C145.932,202.534,145.613,202.119,145.295,201.704z"/>
<path fill="#9ACE82" d="M115.078,80.311c0.005,0.976,0.01,1.952,0.015,2.929c-0.144,0.302-0.397,0.598-0.415,0.908
	c-0.171,2.988-0.246,5.982-0.467,8.965c-0.127,1.717-0.352,3.447-0.751,5.119c-0.557,2.336-1.24,4.65-2.008,6.926
	c-1.11,3.288-2.742,4.235-6.04,3.712c-0.014-0.704-0.027-1.407-0.04-2.111c0.14-1.542,0.28-3.085,0.421-4.627
	c0.293-2.935,0.585-5.87,0.878-8.805c0.257,1.542,0.605,3.075,0.752,4.628c0.264,2.802,0.392,5.617,0.626,8.422
	c0.02,0.244,0.402,0.458,1.005,1.099c0.061-1.265,0.052-2.056,0.145-2.835c0.805-6.713,1.539-13.437,2.501-20.129
	c0.279-1.941,1.223-3.787,1.807-5.511C114.043,79.448,114.561,79.88,115.078,80.311z"/>
<path fill="#9ACE82" d="M108.333,71.062c0.124,0.828,0.41,1.671,0.34,2.482c-0.184,2.127-0.523,4.24-0.801,6.359
	C108.025,76.957,108.179,74.009,108.333,71.062z"/>
<path fill="#9ACE82" d="M109.569,52.995c0.134,2.183,0.3,4.365,0.35,6.549c0.004,0.193-0.739,0.404-1.134,0.606
	C109.046,57.766,109.307,55.381,109.569,52.995z"/>
<path fill="#ABD69D" d="M105.792,102.131c-0.14,1.542-0.28,3.085-0.421,4.627C104.997,105.169,104.276,103.549,105.792,102.131z"/>
<path fill="#9ACE82" d="M107.46,86.537c-0.268,1.283,0.845,2.84-0.767,3.856C106.949,89.107,107.204,87.822,107.46,86.537z"/>
<path fill="#9ACE82" d="M109.108,62.985c-0.136,1.16-0.271,2.321-0.408,3.481C108.299,65.243,107.723,63.999,109.108,62.985z"/>
<path fill="#9ACE82" d="M107.881,80.658c-0.141,0.868-0.281,1.736-0.423,2.604C107.016,82.299,106.548,81.332,107.881,80.658z"/>
<path fill="#9DD08E" d="M143.64,189.103c-0.237-0.755-0.474-1.51-0.711-2.264c-3.25,1.943-5.094,4.724-4.261,8.551
	c0.411,1.89-0.237,4.582,2.733,5.295c0.225,0.054,0.34,0.797,0.407,1.235c0.236,1.545,0.429,3.097,0.623,4.529
	c2.291-0.252-0.618-3.217,2.121-3.058c0.26,1.392,0.518,2.783,0.777,4.174c-0.252,0.321-0.708,0.643-0.706,0.962
	c0.003,0.447,0.584,0.941,0.503,1.328c-0.301,1.426-0.363,3.253-1.281,4.111c-1.222,1.144-2.873,0.032-3.812-1.064
	c-1.475-1.719-2.735-3.626-2.295-6.155c0.574-3.299-0.548-6.357-1.474-9.44c-0.175-0.584-0.178-1.233-0.185-1.853
	c-0.021-1.776-0.003-3.553,0.002-5.33c0-0.139,0.003-0.28,0.024-0.417c0.357-2.346,5.083-6.938,7.538-7.329
	C143.642,184.62,143.641,186.861,143.64,189.103z M143.518,207.307c-0.051,0.117-0.167,0.259-0.134,0.342
	c0.033,0.084,0.215,0.109,0.331,0.161c0.051-0.116,0.167-0.259,0.134-0.341C143.816,207.384,143.635,207.358,143.518,207.307z"/>
<path fill="#415846" d="M96.586,237.81c0.149,0.144,0.299,0.287,0.448,0.431C96.884,238.097,96.735,237.954,96.586,237.81z"/>
<path fill="#71C167" d="M145.826,237.002c0.112,0.237,0.223,0.473,0.335,0.709c-0.449,0.292-0.899,0.585-1.349,0.878
	c-1.659-1.298-3.158-2.933-5.014-3.811c-2.501-1.183-5.278-1.783-7.936-2.634c-0.083,0.24-0.165,0.48-0.248,0.72
	c1.847,0.816,3.69,1.641,5.543,2.44c0.443,0.191,1.02,0.178,1.367,0.464c0.864,0.713,1.781,1.44,2.404,2.349
	c1.213,1.771-1.72,0.921-1.485,2.164c-0.283-0.119-0.567-0.238-0.851-0.356c-0.708-0.376-1.415-0.751-2.192-1.164
	c0.489-0.083,0.942-0.159,1.395-0.236c-3.955-0.911-7.58-3.46-11.91-2.176c-0.599,0.178-1.339-0.121-2.014-0.199
	c-1.532,0.129-3.063,0.259-4.595,0.388c-0.373-0.126-0.786-0.424-1.114-0.35c-2.737,0.621-5.506,1.165-8.169,2.03
	c-1.882,0.611-3.614,1.684-5.413,2.551c-1.379-0.404-2.64-0.943-2.936-2.58c0.534-0.469,1.007-1.048,1.614-1.389
	c1.911-1.074,3.873-2.058,5.815-3.077c-0.082-0.187-0.165-0.373-0.247-0.56c-1.577,0.545-3.142,1.129-4.738,1.611
	c-0.507,0.153-1.097,0.03-1.649,0.033c0.278-1.795,1.667-1.867,3.058-2.055c1.52-0.205,3.021-0.549,4.53-0.832
	c0.424-0.003,0.848-0.005,1.272-0.008c2.095,0.001,4.195,0.088,6.285-0.02c2.06-0.107,4.109-0.411,6.162-0.636
	c0.052-0.006,0.094-0.098,0.141-0.149c1.823-0.005,3.646-0.01,5.47-0.015c0.144,0.019,0.287,0.037,0.431,0.056
	c0.867,0.123,1.731,0.328,2.602,0.355C137.558,231.666,141.736,234.218,145.826,237.002z"/>
<path fill="#6ABC53" d="M128.91,45.03c1.022-0.035,2.043-0.071,3.065-0.107c0.133,0.28,0.265,0.561,0.399,0.841
	c0.01,0.618,0.02,1.236,0.03,1.855c-0.016,0.238-0.033,0.476-0.049,0.713c-0.72-0.683-1.44-1.365-2.16-2.047
	c-0.058-0.032-0.117-0.065-0.175-0.097c0.057,0.034,0.114,0.068,0.171,0.102c0.836,6.952,1.672,13.903,2.578,21.434
	c-0.828-0.534-1.073-0.692-1.318-0.85c-0.274-1.846-0.632-3.684-0.803-5.539c-0.23-2.494-0.496-5.007-0.415-7.502
	c0.094-2.912-0.505-5.377-3.001-7.125C127.791,46.149,128.35,45.589,128.91,45.03z"/>
<path fill="#71C167" d="M131.931,44.671c-0.647-0.071-1.293-0.142-1.94-0.213c-0.026-0.2-0.051-0.401-0.077-0.601
	c1.092-0.151,2.183-0.301,3.275-0.451C132.77,43.827,132.351,44.249,131.931,44.671z"/>
<path fill="#6ABC53" d="M104.579,240.768c1.799-0.867,3.531-1.94,5.413-2.551c2.663-0.864,5.432-1.408,8.169-2.03
	c0.328-0.074,0.74,0.224,1.114,0.35c-1.915,2.828-5.026,2.447-7.822,2.972c-0.898,0.168-1.712,0.915-2.597,0.985
	C107.436,240.606,106.075,242.029,104.579,240.768z"/>
<path fill="#6ABC53" d="M102.437,234.806c0.552-0.003,1.142,0.12,1.649-0.033c1.596-0.481,3.161-1.066,4.738-1.611
	c0.083,0.187,0.165,0.373,0.247,0.56c-1.942,1.019-3.904,2.004-5.815,3.077c-0.607,0.341-1.08,0.919-1.614,1.389
	c-0.143-0.805-0.286-1.609-0.429-2.413C101.622,235.453,102.029,235.13,102.437,234.806z"/>
<path fill="#9DD08E" d="M111.298,231.912c-0.424,0.003-0.848,0.005-1.272,0.008c-0.915-0.185-1.859-0.282-2.734-0.582
	c-0.672-0.23-1.258-0.716-1.881-1.087c-0.329-0.666-0.658-1.333-0.919-1.862c0.913-0.505,1.992-1.118,3.091-1.695
	c0.227-0.119,0.682-0.234,0.769-0.13c1.407,1.68,2.99,0.356,4.511,0.393c2.091,0.052,4.171,0.584,6.253,0.925
	c1.153,0.188,2.366,0.246,3.428,0.672c0.583,0.234,0.908,1.11,1.349,1.697c-1.043-0.27-2.079-0.717-3.132-0.766
	c-1.312-0.06-2.638,0.213-3.959,0.334c-2.054,0.188-4.11,0.37-6.252,0.562C110.885,231.067,111.091,231.49,111.298,231.912z"/>
<path fill="#BDDEBA" d="M108.639,154.026c-1.031-2.851-1.858-5.017-2.573-7.22c-0.129-0.399,0.042-1.14,0.348-1.395
	c1.551-1.293,4.84-0.769,6.108,0.864c0.232,0.299,0.522,0.71,0.836,0.761c2.089,0.344,4.186,0.659,6.291,0.874
	c1.541,0.157,2.656,0.578,3.382,2.191c0.778,1.728,0.039,1.911-1.335,2.038c-2.752,0.254-5.505,0.517-8.241,0.896
	C111.737,153.273,110.048,153.729,108.639,154.026z"/>
<path fill="#D1E8CF" d="M117.155,122.325c0.007,0.695,0.014,1.389,0.021,2.084c-0.137,0.92-0.328,1.836-0.401,2.761
	c-0.185,2.336,0.936,5.084-2.118,6.479c-0.277,0.007-0.555,0.015-0.832,0.022c-0.842-0.011-1.684-0.021-2.525-0.031
	c0.004-2.232,0.007-4.464,0.011-6.697c0.273-0.396,0.604-0.764,0.807-1.192c0.6-1.265,1.15-2.554,1.72-3.833
	c0.272-0.005,0.543-0.01,0.815-0.014C115.487,122.044,116.321,122.184,117.155,122.325z"/>
<path fill="#D1E8CF" d="M127.752,120.202c0.395,0.281,0.791,0.562,1.186,0.843c-0.415,0.7-0.829,1.399-1.161,1.958
	c-0.305,0.913-0.576,1.728-0.848,2.542c-0.874-0.574-1.884-1.02-2.585-1.759c-0.729-0.767-1.16-1.817-1.721-2.744
	c0-0.725,0-1.45,0-2.297c0.849,0.265,1.501,0.469,2.154,0.672c-0.449,0.826,1.816,1.674-0.019,2.49
	c-0.08-1.127-0.392-1.783-1.813-0.51c0.735,0.208,1.273,0.36,1.811,0.512c0.377,1.03,0.687,0.936,1.249,0.055
	C126.439,121.284,127.158,120.783,127.752,120.202z"/>
<path fill="#BDDEBA" d="M114.657,133.649c3.054-1.395,1.933-4.143,2.118-6.479c0.073-0.925,0.264-1.841,0.401-2.761
	c0.093,2.723,0.368,5.458,0.207,8.166C117.29,134.129,115.683,133.538,114.657,133.649z"/>
<path fill="#BDDEBA" d="M113.838,121.918c-0.57,1.279-1.12,2.568-1.72,3.833c-0.203,0.428-0.535,0.796-0.807,1.192
	c-0.005-0.827,0.028-1.657-0.022-2.482C111.177,122.63,111.927,121.703,113.838,121.918z"/>
<path fill="#BDDEBA" d="M117.155,122.325c-0.834-0.14-1.669-0.281-2.503-0.421C115.605,121.339,116.534,120.919,117.155,122.325z"/>
<path fill="#BDDEBA" d="M111.299,133.64c0.842,0.01,1.683,0.02,2.525,0.031C112.968,134.902,112.125,134.991,111.299,133.64z"/>
<path fill="#D1E8CF" d="M118.825,106.78c0.029,0.689,0.059,1.379,0.089,2.068c-0.274,3.126-0.559,3.389-3.507,2.414
	c-0.56-0.185-0.813-1.301-1.208-1.987c0.024-0.535,0.049-1.069,0.073-1.604c0.558-0.29,1.115-0.58,1.673-0.87
	c0,0-0.001,0.002-0.001,0.002C116.904,106.795,117.865,106.787,118.825,106.78z"/>
<path fill="#D1E8CF" d="M124.318,110.603c0.406-0.011,0.813-0.022,1.219-0.033c-0.336,1.443,0.935,1.289,1.664,1.675
	c-0.001,0.553-0.003,1.106-0.004,1.659c-1.013-0.028-2.026-0.057-3.039-0.085C124.211,112.746,124.264,111.674,124.318,110.603z"/>
<path fill="#B8DCA9" d="M136.543,116.843c-0.346-1.015-0.691-2.029-1.037-3.044c0.259-0.105,0.519-0.21,0.778-0.315
	c0.488,0.844,0.977,1.687,1.465,2.531c0.561,1.136,1.122,2.273,1.683,3.409c-0.168,0.115-0.336,0.23-0.504,0.345
	C138.134,118.793,137.338,117.818,136.543,116.843z"/>
<path fill="#FFFFFF" d="M127.752,120.202c-0.593,0.581-1.312,1.082-1.748,1.764c-0.563,0.882-0.872,0.975-1.249-0.055l0.003-0.002
	c1.835-0.816-0.43-1.664,0.019-2.49c0.254-0.169,0.508-0.339,0.762-0.508c0.134,0.041,0.271,0.067,0.41,0.079
	c0.588-0.053,1.175-0.106,1.763-0.16C127.724,119.287,127.738,119.744,127.752,120.202z"/>
<path fill="#B8DCA9" d="M127.71,118.829c-0.588,0.053-1.175,0.106-1.762,0.159c0.148-0.574,0.296-1.147,0.444-1.721
	C126.832,117.788,127.271,118.309,127.71,118.829z"/>
<path fill="#B8DCA9" d="M125.564,116.846c-0.143-0.444-0.285-0.887-0.428-1.331c0.21-0.056,0.42-0.112,0.63-0.167
	c0.076,0.497,0.153,0.993,0.229,1.49C125.852,116.841,125.708,116.843,125.564,116.846z"/>
<path fill="#D1E8CF" d="M125.564,116.846c0.144-0.003,0.288-0.005,0.432-0.008c0.132,0.143,0.265,0.286,0.397,0.43
	c-0.148,0.574-0.296,1.147-0.444,1.721c-0.14-0.011-0.276-0.037-0.41-0.078C125.546,118.222,125.555,117.534,125.564,116.846z"/>
<path fill="#ABD69D" d="M118.825,106.78c-0.961,0.008-1.921,0.015-2.881,0.023c0.908-0.415,1.816-0.83,2.724-1.246
	C118.72,105.965,118.773,106.372,118.825,106.78z"/>
<path fill="#ABD69D" d="M127.201,112.244c-0.729-0.385-2-0.232-1.664-1.675C127.835,110.582,127.835,110.582,127.201,112.244z"/>
<path fill="#ABD69D" d="M115.945,106.801c-0.558,0.29-1.116,0.579-1.673,0.87C114.83,107.382,115.387,107.091,115.945,106.801z"/>
<path fill="#71C167" d="M128.91,45.03c-0.56,0.559-1.119,1.119-1.679,1.678c-0.829,0.005-1.658,0.01-2.486,0.016l-0.028-0.032
	c-0.032-0.32-0.064-0.641-0.156-1.555c-0.37,0.875-0.517,1.22-0.663,1.566l-0.009,0.01c-1.535-0.004-3.071-0.009-4.606-0.013
	c0.118-0.401,0.236-0.802,0.354-1.203C122.728,45.341,125.819,45.185,128.91,45.03z"/>
<path fill="#9ACE82" d="M118.476,63.103c-0.012-2.828-0.067-5.658,0.001-8.484c0.013-0.553,0.502-1.094,0.771-1.64
	c0.008,2.759,0.065,5.52-0.011,8.277C119.219,61.878,118.742,62.488,118.476,63.103z"/>
<path fill="#71C167" d="M132.711,71.488c0.416,1.68,0.832,3.359,1.248,5.039c0,0.275,0.001,0.55,0.001,0.825
	c-0.555-1.954-1.109-3.909-1.664-5.863c0,0,0.208-0.003,0.208-0.003L132.711,71.488z"/>
<path fill="#6ABC53" d="M132.711,71.488l-0.208-0.002c0,0-0.208,0.003-0.208,0.003c-0.152-0.98-0.304-1.96-0.456-2.94
	c0.292,0.42,0.585,0.84,0.878,1.26C132.716,70.368,132.713,70.928,132.711,71.488z"/>
<path fill="#9ACE82" d="M133.96,77.352c0-0.275,0-0.55-0.001-0.825c0.163,0.404,0.325,0.808,0.488,1.212
	c-0.101,0.037-0.202,0.073-0.303,0.11C134.083,77.683,134.021,77.518,133.96,77.352z"/>
<path fill="#71C167" d="M133.697,79.676c-0.03-0.269-0.048-0.439-0.067-0.609c0.099,0.067,0.254,0.118,0.281,0.207
	C133.934,79.352,133.813,79.473,133.697,79.676z"/>
<path fill="#71C167" d="M124.745,46.724c-0.285-0.004-0.57-0.008-0.856-0.012c0,0,0.009-0.01,0.009-0.01
	c0.273-0.004,0.546-0.007,0.819-0.011L124.745,46.724z"/>
<path fill="#9DD08E" d="M115.859,71.862c-0.123,0.435-0.246,0.87-0.369,1.305C115.613,72.732,115.736,72.297,115.859,71.862z"/>
<path fill="#9DD08E" d="M98.254,194.11c0.471-0.087,0.941-0.174,1.639-0.304c0,2.062,0,4.022,0,5.982
	c-0.176-0.001-0.353-0.002-0.529-0.003c0.063-0.865,0.127-1.73,0.202-2.75c-0.521,0.175-0.925,0.311-1.33,0.447
	C98.241,196.358,98.248,195.234,98.254,194.11z"/>
<path fill="#ABD69D" d="M98.273,211.762c-0.134,0.135-0.267,0.271-0.401,0.406C98.006,212.033,98.14,211.897,98.273,211.762z"/>
<path fill="#BDDEBA" d="M97.436,213.864c0.058,0.034,0.117,0.067,0.175,0.101c-0.061-0.031-0.121-0.063-0.182-0.094
	C97.429,213.871,97.436,213.864,97.436,213.864z"/>
<path fill="#9DD08E" d="M129.787,231.147c-0.144-0.019-0.287-0.037-0.431-0.056c-0.339-1.704-1.84-1.335-2.955-1.707
	c-0.55-0.184-1.009-0.64-1.509-0.973c0.527-0.151,1.047-0.339,1.584-0.442c0.459-0.088,0.941-0.049,1.405-0.117
	c2.179-0.317,4.427-0.415,6.513-1.044c2.23-0.673,4.268-1.964,6.472-2.755c0.806-0.289,1.849,0.084,2.784,0.154
	c-0.161,0.847-0.089,1.855-0.535,2.508c-0.842,1.233-1.847,2.491-3.742,1.982c-0.146-0.039-0.507,0.721-0.769,1.109
	c-0.94-0.067-1.95,0.065-2.804-0.241C133.865,228.87,130.981,229.532,129.787,231.147z"/>
<path fill="#90CA75" d="M129.787,231.147c1.195-1.615,4.078-2.276,6.015-1.582c0.854,0.306,1.865,0.175,2.804,0.241
	c1.256-0.002,2.511-0.003,3.767-0.005c0.183,2.996,1.075,3.697,3.586,2.717c0.211,0.648,0.422,1.293,0.632,1.937
	c-0.255,0.849-0.51,1.698-0.765,2.547c-4.089-2.784-8.267-5.336-13.437-5.5C131.518,231.475,130.654,231.27,129.787,231.147z"/>
<path fill="#9ACE82" d="M111.298,231.912c-0.207-0.422-0.413-0.845-0.75-1.533c2.142-0.192,4.198-0.374,6.252-0.562
	c1.321-0.121,2.647-0.394,3.959-0.334c1.054,0.048,2.089,0.496,3.132,0.766c-0.002,0.286-0.003,0.571-0.005,0.857
	c-0.047,0.052-0.09,0.144-0.141,0.15c-2.053,0.225-4.103,0.529-6.162,0.636C115.493,232.001,113.393,231.913,111.298,231.912z"/>
<path fill="#9DD08E" d="M146.59,234.455c-0.21-0.644-0.42-1.289-0.632-1.937c-2.511,0.981-3.403,0.279-3.586-2.717
	c1.407-1.121,3.333-1.166,4.253-0.1C147.322,230.508,147.298,233.73,146.59,234.455z"/>
<path fill="#90CA75" d="M143.64,189.103c0.001-2.241,0.002-4.483,0.003-6.724c0.408,0.748,1.104,1.472,1.167,2.248
	c0.172,2.093,0.077,4.208,0.083,6.314c0.002,0.636-0.014,1.272-0.022,1.908c-0.271-0.703-0.541-1.405-0.812-2.107
	c-0.01-0.134-0.02-0.268-0.03-0.402C143.9,189.927,143.77,189.515,143.64,189.103z"/>
<path fill="#9DD08E" d="M144.03,190.339c0.01,0.134,0.02,0.269,0.03,0.402C144.053,190.607,144.043,190.473,144.03,190.339z"/>
<path fill="#9ACE82" d="M143.519,207.307c0.117,0.051,0.297,0.077,0.331,0.162c0.033,0.083-0.083,0.225-0.134,0.341
	c-0.116-0.051-0.298-0.077-0.331-0.161C143.351,207.566,143.467,207.424,143.519,207.307z"/>
<path fill="#71C167" d="M130.19,46.289c-0.057-0.034-0.114-0.068-0.171-0.102c0.058,0.032,0.117,0.065,0.175,0.097
	C130.194,46.285,130.19,46.289,130.19,46.289z"/>
<path fill="#B8DCA9" d="M124.754,121.911c-0.538-0.152-1.077-0.304-1.811-0.512c1.421-1.273,1.733-0.617,1.813,0.51
	C124.757,121.909,124.754,121.911,124.754,121.911z"/>
<path fill="#90CA75" d="M124.717,46.691c-0.273,0.004-0.546,0.007-0.819,0.011c0.146-0.346,0.293-0.691,0.663-1.566
	C124.652,46.05,124.685,46.371,124.717,46.691z"/>
</svg>
